<svg id="Ebene_1" data-name="Ebene 1" xmlns="http://www.w3.org/2000/svg" viewBox="0 0 424.50549 172.50549">
  <defs>
    <style>
      .cls-1 {
        fill: #ffd949;
      }

      .cls-2 {
        fill: #f4bf1a;
      }

      .cls-3 {
        fill: #dca815;
      }
    </style>
  </defs>
  <title>coins</title>
  <g>
    <path class="cls-1" d="M393.694,69.24942c-.19909,21.93029-84.44491,41.62436-188.13181,40.683S18.00092,87.7708,18.2,65.84051C18.39917,43.903,102.59642,29.55972,206.28331,30.501S393.89316,47.3119,393.694,69.24942"/>
    <path class="cls-2" d="M205.56219,109.93246C101.8753,108.99114,18.00937,86.83929,18.20853,64.90177l-.45863,50.51839c-.14126,21.92359,83.6954,44.11851,187.3534,45.05957s187.8838-19.72812,188.1406-41.65066l.45863-50.51839c-.19916,21.93752-84.45344,42.5631-188.14034,41.62178"/>
    <path class="cls-3" d="M46.89117,87.36147l-.45857,50.51117q6.56356,2.48606,14.39973,4.7959L61.291,92.15015q-7.84345-2.30269-14.39979-4.78868"/>
    <path class="cls-3" d="M350.13249,94.77239l-.45863,50.51838q7.884-2.1599,14.48443-4.53367l.45856-50.51117q-6.60762,2.36649-14.48436,4.52646"/>
    <path class="cls-3" d="M82.90648,97.58929l-.45869,50.5256q6.91911,1.50353,14.41729,2.86067l.4587-50.5256q-7.49457-1.3571-14.4173-2.86067"/>
    <path class="cls-3" d="M313.95493,102.41664l-.45876,50.53282q7.51807-1.23165,14.46692-2.60566l.45869-50.52561q-6.94526,1.37767-14.46685,2.59845"/>
    <path class="cls-3" d="M118.95765,103.86721,118.49889,154.4c4.70262.6493,9.49949,1.25615,14.42687,1.80639l.45876-50.53283c-4.92738-.55025-9.72419-1.1643-14.42687-1.80639"/>
    <path class="cls-3" d="M277.80522,106.99194l-.45876,50.53283c4.93662-.46792,9.74373-.98757,14.45729-1.54417l.45882-50.54005c-4.71369.571-9.5208,1.09069-14.45735,1.55139"/>
    <path class="cls-3" d="M155.03072,107.7333l-.45882,50.54q7.1118.56286,14.43421.99764l.45889-50.54727q-7.32972-.424-14.43428-.99041"/>
    <path class="cls-3" d="M241.67538,109.37927l-.45889,50.54727q7.33622-.29088,14.44994-.73542l.45883-50.54005q-7.12088.43366-14.44988.7282"/>
    <path class="cls-3" d="M205.56219,109.93246c-2.419-.022-4.82345-.06546-7.22064-.10888l-.45889,50.54726c2.39719.04343,4.8016.08693,7.22064.10889s4.82385.02212,7.22143.02222l.45889-50.54726c-2.39758-.0001-4.80239-.00027-7.22143-.02223"/>
  </g>
</svg>
