<svg id="Ebene_1" data-name="Ebene 1" xmlns="http://www.w3.org/2000/svg" viewBox="0 0 1137.50549 770.50549">
  <defs>
    <style>
      .cls-1 {
        fill: #e4af18;
      }

      .cls-2 {
        fill: #f4bf1a;
      }

      .cls-3 {
        fill: #ffd949;
      }

      .cls-4 {
        fill: #dca815;
      }

      .cls-5 {
        fill: #c49214;
      }

      .cls-6 {
        fill: #fcc62d;
      }
    </style>
  </defs>
  <title>coins</title>
  <g>
    <path class="cls-1" d="M671.41874,687.95614c-103.69116,0-187.75473-21.38958-187.75473-43.328v50.52045c.05777,21.924,84.09246,43.35691,187.75473,43.35691s187.697-21.43291,187.75474-43.35691V644.62813c0,21.9384-84.06357,43.328-187.75474,43.328"/>
    <path class="cls-2" d="M649.75473,608.52145C546.06357,608.52145,462,587.13187,462,565.19343v50.52046c.05777,21.924,84.09246,43.35691,187.75473,43.35691s187.697-21.43291,187.75474-43.35691V565.19343c0,21.93841-84.06357,43.328-187.75474,43.328"/>
    <path class="cls-1" d="M693.08275,529.08675c-103.69117,0-187.75473-21.38959-187.75473-43.328v50.52047c.05777,21.924,84.09246,43.35689,187.75473,43.35689s187.697-21.43292,187.75473-43.35689V485.75874c0,21.93842-84.06356,43.328-187.75473,43.328"/>
    <path class="cls-3" d="M837.50947,400.04148c0,21.9312-84.06357,42.38924-187.75474,42.38924S462,421.97268,462,400.04148c0-21.93842,84.06357-37.04545,187.75473-37.04545s187.75474,15.107,187.75474,37.04545"/>
    <path class="cls-2" d="M649.75473,442.43072C546.06357,442.43072,462,421.04113,462,399.10271v50.52046c.05777,21.924,84.09246,43.3569,187.75473,43.3569s187.697-21.43292,187.75474-43.3569V399.10271c0,21.93842-84.06357,43.328-187.75474,43.328"/>
    <path class="cls-4" d="M490.88534,421.3011v50.51324q6.58586,2.42638,14.44268,4.665V425.95885q-7.864-2.23139-14.44268-4.65775"/>
    <path class="cls-4" d="M794.18145,425.95885v50.52047q7.86405-2.23138,14.44267-4.665V421.3011q-6.58587,2.42636-14.44267,4.65775"/>
    <path class="cls-4" d="M526.992,431.20154v50.52769q6.93249,1.44065,14.44268,2.72966V433.93121q-7.50659-1.289-14.44268-2.72967"/>
    <path class="cls-4" d="M758.07477,433.93121v50.5349q7.50659-1.29984,14.44267-2.73688V431.20154q-6.93247,1.44066-14.44267,2.72967"/>
    <path class="cls-4" d="M563.0987,437.15193v50.53491c4.70832.60659,9.5105,1.16986,14.44267,1.67535V438.82728c-4.93217-.5055-9.73435-1.076-14.44267-1.67535"/>
    <path class="cls-4" d="M721.96809,438.8345v50.53491c4.93217-.51271,9.73436-1.076,14.44267-1.67536V437.15192c-4.70831.61382-9.5105,1.17708-14.44267,1.68258"/>
    <path class="cls-4" d="M599.20538,440.69038v50.54213q7.11663.49826,14.44267.86656V441.54972q-7.33326-.35745-14.44267-.85934"/>
    <path class="cls-4" d="M685.86141,441.54972v50.54935q7.33328-.35746,14.44268-.86656V440.69037q-7.11664.49829-14.44268.85935"/>
    <path class="cls-4" d="M649.75473,442.43072c-2.41914,0-4.82384-.02166-7.22133-.04332v50.54934c2.39749.02167,4.80219.04333,7.22133.04333s4.82385-.02166,7.22134-.04333V442.38739c-2.39749.02167-4.8022.04333-7.22134.04333"/>
    <path class="cls-5" d="M534.21336,507.95712v50.51325q6.58586,2.42638,14.44267,4.665V512.61488q-7.864-2.23138-14.44267-4.65776"/>
    <path class="cls-5" d="M837.50947,512.61488v50.52047q7.86405-2.23139,14.44267-4.665V507.95713q-6.58588,2.42637-14.44267,4.65775"/>
    <path class="cls-5" d="M570.32,517.85757v50.52769q6.93249,1.44064,14.44267,2.72967V520.58724q-7.50658-1.289-14.44267-2.72967"/>
    <path class="cls-5" d="M801.40279,520.58724v50.5349q7.50659-1.29984,14.44267-2.73688V517.85757q-6.93248,1.44066-14.44267,2.72967"/>
    <path class="cls-5" d="M606.42672,523.81518V574.3501c4.70831.60659,9.51049,1.16985,14.44267,1.67534V525.49052c-4.93218-.51271-9.73436-1.076-14.44267-1.67534"/>
    <path class="cls-5" d="M765.29611,525.4833v50.54214c4.93216-.51271,9.73436-1.076,14.44267-1.67534V523.81518c-4.70831.60659-9.51051,1.16985-14.44267,1.66812"/>
    <path class="cls-5" d="M642.5334,527.34642v50.54212q7.11662.49829,14.44267.86655V528.20574q-7.33328-.35745-14.44267-.85932"/>
    <path class="cls-5" d="M729.18943,528.20575v50.54934q7.33324-.35746,14.44267-.86655V527.3464q-7.11665.49829-14.44267.85935"/>
    <path class="cls-5" d="M693.08275,529.08675c-2.41914,0-4.82385-.02166-7.22134-.04333v50.54935c2.39749.02168,4.8022.04333,7.22134.04333s4.82385-.02165,7.22134-.04333V529.04342c-2.39749.02167-4.8022.04333-7.22134.04333"/>
    <path class="cls-4" d="M490.88534,587.39183v50.51324q6.58586,2.42636,14.44268,4.665V592.04959q-7.864-2.2314-14.44268-4.65776"/>
    <path class="cls-4" d="M794.18145,592.04959v50.52046q7.86405-2.23141,14.44267-4.665V587.39183q-6.58587,2.42636-14.44267,4.65776"/>
    <path class="cls-4" d="M526.992,597.29227V647.82q6.93249,1.44064,14.44268,2.72965v-50.5277q-7.50659-1.289-14.44268-2.72965"/>
    <path class="cls-4" d="M758.07477,600.02195v50.53492q7.50659-1.29984,14.44267-2.7369v-50.5277q-6.93247,1.44065-14.44267,2.72968"/>
    <path class="cls-4" d="M563.0987,603.24988v50.53491c4.70832.60659,9.5105,1.16985,14.44267,1.67534V604.92521c-4.93217-.5127-9.73435-1.076-14.44267-1.67533"/>
    <path class="cls-4" d="M721.96809,604.918v50.54213c4.93217-.51271,9.73436-1.076,14.44267-1.67534V603.24988c-4.70831.60659-9.5105,1.16984-14.44267,1.66812"/>
    <path class="cls-4" d="M599.20538,606.7811v50.54213q7.11663.49829,14.44267.86655V607.64043q-7.33326-.35742-14.44267-.85933"/>
    <path class="cls-4" d="M685.86141,607.64043v50.54935q7.33328-.35747,14.44268-.86655V606.7811q-7.11664.49829-14.44268.85933"/>
    <path class="cls-4" d="M649.75473,608.52145c-2.41914,0-4.82384-.02165-7.22133-.04333v50.54935c2.39749.02168,4.80219.04333,7.22133.04333s4.82385-.02165,7.22134-.04333V608.47812c-2.39749.02168-4.8022.04333-7.22134.04333"/>
    <path class="cls-5" d="M512.54935,666.82652v50.51324q6.58586,2.42635,14.44267,4.665V671.48429q-7.864-2.23142-14.44267-4.65777"/>
    <path class="cls-5" d="M815.84546,671.48429v50.52045q7.86405-2.2314,14.44267-4.665V666.82652q-6.58587,2.42637-14.44267,4.65777"/>
    <path class="cls-5" d="M548.656,676.727v50.5277q6.93249,1.44066,14.44267,2.72966v-50.5277q-7.50657-1.289-14.44267-2.72966"/>
    <path class="cls-5" d="M779.73878,679.45664v50.53492q7.50658-1.29983,14.44267-2.7369V676.727q-6.93248,1.44066-14.44267,2.72968"/>
    <path class="cls-5" d="M584.76271,682.68457v50.53492c4.70831.60659,9.5105,1.16985,14.44267,1.67534V684.35991c-4.93217-.51271-9.73436-1.076-14.44267-1.67534"/>
    <path class="cls-5" d="M743.6321,684.35269v50.54214c4.93216-.51271,9.73436-1.076,14.44267-1.67534V682.68457c-4.70831.60659-9.51051,1.16985-14.44267,1.66812"/>
    <path class="cls-5" d="M620.86939,686.21579v50.54214q7.11662.49828,14.44267.86655V687.07513q-7.33326-.35743-14.44267-.85934"/>
    <path class="cls-5" d="M707.52542,687.07513v50.54935q7.33324-.35746,14.44267-.86655V686.21579q-7.11664.49829-14.44267.85934"/>
    <path class="cls-5" d="M671.41874,687.95614c-2.41914,0-4.82385-.02165-7.22133-.04333v50.54935c2.39748.02168,4.80219.04333,7.22133.04333s4.82385-.02165,7.22134-.04333V687.91281c-2.39749.02168-4.8022.04333-7.22134.04333"/>
    <path class="cls-6" d="M831.81907,625.65047c-20.5086,18.03888-94.23124,33.42033-182.06434,33.42033-68.6749,0-128.70587-9.40941-161.44019-22.13339-3.01129,2.72966-4.65053,5.6182-4.65053,8.6295,0,21.9384,84.06357,42.38923,187.75473,42.38923,103.69839,0,187.75474-20.45083,187.75474-42.38923,0-7.56075-10.00154-14.31992-27.35441-19.91644"/>
    <path class="cls-3" d="M693.08275,579.6361c-95.41552,0-174.14973-18.16165-186.12271-38.15032C478.94847,547.83335,462,556.28953,462,566.1322c0,21.9312,84.06357,42.38925,187.75473,42.38925s187.75474-20.458,187.75474-42.38924a8.7151,8.7151,0,0,0-.54161-2.85243c-34.43856,9.691-86.1,16.35632-143.88511,16.35632"/>
    <path class="cls-6" d="M830.23758,460.83791c-22.46557,17.47563-94.7367,32.14216-180.48285,32.14216-55.37319,0-105.13543-6.12369-139.50177-15.1648-3.1846,2.81633-4.92494,5.77707-4.92494,8.88224,0,21.93841,84.06357,42.38924,187.75473,42.38924s187.75473-20.45083,187.75473-42.38923c0-10.48539-19.2304-19.40373-50.5999-25.85961"/>
    <path class="cls-1" d="M687.41874,361.95614c-103.69116,0-187.75473-21.38958-187.75473-43.328v50.52045c.05777,21.924,84.09246,43.35691,187.75473,43.35691s187.697-21.43291,187.75474-43.35691V318.62813c0,21.9384-84.06357,43.328-187.75474,43.328"/>
    <path class="cls-2" d="M665.75473,282.52145C562.06357,282.52145,478,261.13187,478,239.19343v50.52046c.05777,21.924,84.09246,43.35691,187.75473,43.35691s187.697-21.43291,187.75474-43.35691V239.19343c0,21.93841-84.06357,43.328-187.75474,43.328"/>
    <path class="cls-1" d="M709.08275,203.08675c-103.69117,0-187.75473-21.38959-187.75473-43.328v50.52047c.05777,21.924,84.09246,43.35689,187.75473,43.35689s187.697-21.43292,187.75473-43.35689V159.75874c0,21.93842-84.06356,43.328-187.75473,43.328"/>
    <path class="cls-3" d="M853.50947,74.04148c0,21.9312-84.06357,42.38924-187.75474,42.38924S478,95.97268,478,74.04148C478,52.10306,562.06357,36.996,665.75473,36.996s187.75474,15.107,187.75474,37.04545"/>
    <path class="cls-2" d="M665.75473,116.43072C562.06357,116.43072,478,95.04113,478,73.10271v50.52046c.05777,21.924,84.09246,43.3569,187.75473,43.3569s187.697-21.43292,187.75474-43.3569V73.10271c0,21.93842-84.06357,43.328-187.75474,43.328"/>
    <path class="cls-4" d="M506.88534,95.3011v50.51324q6.58586,2.42639,14.44268,4.665V99.95885q-7.864-2.23139-14.44268-4.65775"/>
    <path class="cls-4" d="M810.18145,99.95885v50.52047q7.86405-2.23139,14.44267-4.665V95.3011q-6.58587,2.42636-14.44267,4.65775"/>
    <path class="cls-4" d="M542.992,105.20154v50.52769q6.93249,1.44064,14.44268,2.72966V107.93121q-7.50659-1.289-14.44268-2.72967"/>
    <path class="cls-4" d="M774.07477,107.93121v50.5349q7.50659-1.29984,14.44267-2.73688V105.20154q-6.93247,1.44066-14.44267,2.72967"/>
    <path class="cls-4" d="M579.0987,111.15193v50.53491c4.70832.60659,9.5105,1.16986,14.44267,1.67535V112.82728c-4.93217-.5055-9.73435-1.076-14.44267-1.67535"/>
    <path class="cls-4" d="M737.96809,112.8345v50.53491c4.93217-.51271,9.73436-1.076,14.44267-1.67536V111.15192c-4.70831.61382-9.5105,1.17708-14.44267,1.68258"/>
    <path class="cls-4" d="M615.20538,114.69038v50.54213q7.11663.49826,14.44267.86656V115.54972q-7.33326-.35745-14.44267-.85934"/>
    <path class="cls-4" d="M701.86141,115.54972v50.54935q7.33328-.35747,14.44268-.86656V114.69037q-7.11664.49828-14.44268.85935"/>
    <path class="cls-4" d="M665.75473,116.43072c-2.41914,0-4.82384-.02166-7.22133-.04332v50.54934c2.39749.02167,4.80219.04333,7.22133.04333s4.82385-.02166,7.22134-.04333V116.38739c-2.39749.02167-4.8022.04333-7.22134.04333"/>
    <path class="cls-5" d="M550.21336,181.95712v50.51325q6.58586,2.42639,14.44267,4.665V186.61488q-7.864-2.23139-14.44267-4.65776"/>
    <path class="cls-5" d="M853.50947,186.61488v50.52047q7.86405-2.23138,14.44267-4.665V181.95713q-6.58588,2.42637-14.44267,4.65775"/>
    <path class="cls-5" d="M586.32,191.85757v50.52769q6.93249,1.44064,14.44267,2.72967V194.58724q-7.50658-1.289-14.44267-2.72967"/>
    <path class="cls-5" d="M817.40279,194.58724v50.5349q7.50659-1.29984,14.44267-2.73688V191.85757q-6.93248,1.44066-14.44267,2.72967"/>
    <path class="cls-5" d="M622.42672,197.81518V248.3501c4.70831.60659,9.51049,1.16985,14.44267,1.67534V199.49052c-4.93218-.51271-9.73436-1.076-14.44267-1.67534"/>
    <path class="cls-5" d="M781.29611,199.4833v50.54214c4.93216-.51271,9.73436-1.076,14.44267-1.67534V197.81518c-4.70831.60659-9.51051,1.16985-14.44267,1.66812"/>
    <path class="cls-5" d="M658.5334,201.34642v50.54212q7.11662.49828,14.44267.86655V202.20574q-7.33328-.35745-14.44267-.85932"/>
    <path class="cls-5" d="M745.18943,202.20575v50.54934q7.33324-.35746,14.44267-.86655V201.3464q-7.11665.49829-14.44267.85935"/>
    <path class="cls-5" d="M709.08275,203.08675c-2.41914,0-4.82385-.02166-7.22134-.04333v50.54935c2.39749.02168,4.8022.04333,7.22134.04333s4.82385-.02165,7.22134-.04333V203.04342c-2.39749.02167-4.8022.04333-7.22134.04333"/>
    <path class="cls-4" d="M506.88534,261.39183v50.51324q6.58586,2.42636,14.44268,4.665V266.04959q-7.864-2.2314-14.44268-4.65776"/>
    <path class="cls-4" d="M810.18145,266.04959v50.52046q7.86405-2.23141,14.44267-4.665V261.39183q-6.58587,2.42636-14.44267,4.65776"/>
    <path class="cls-4" d="M542.992,271.29227V321.82q6.93249,1.44064,14.44268,2.72965v-50.5277q-7.50659-1.289-14.44268-2.72965"/>
    <path class="cls-4" d="M774.07477,274.022v50.53492q7.50659-1.29984,14.44267-2.7369v-50.5277q-6.93247,1.44065-14.44267,2.72968"/>
    <path class="cls-4" d="M579.0987,277.24988v50.53491c4.70832.60659,9.5105,1.16985,14.44267,1.67534V278.92521c-4.93217-.5127-9.73435-1.076-14.44267-1.67533"/>
    <path class="cls-4" d="M737.96809,278.918v50.54213c4.93217-.51271,9.73436-1.076,14.44267-1.67534V277.24988c-4.70831.60659-9.5105,1.16984-14.44267,1.66812"/>
    <path class="cls-4" d="M615.20538,280.7811v50.54213q7.11663.49828,14.44267.86655V281.64043q-7.33326-.35742-14.44267-.85933"/>
    <path class="cls-4" d="M701.86141,281.64043v50.54935q7.33328-.35746,14.44268-.86655V280.7811q-7.11664.49829-14.44268.85933"/>
    <path class="cls-4" d="M665.75473,282.52145c-2.41914,0-4.82384-.02165-7.22133-.04333v50.54935c2.39749.02168,4.80219.04333,7.22133.04333s4.82385-.02165,7.22134-.04333V282.47812c-2.39749.02168-4.8022.04333-7.22134.04333"/>
    <path class="cls-5" d="M528.54935,340.82652v50.51324q6.58586,2.42636,14.44267,4.665V345.48429q-7.864-2.23141-14.44267-4.65777"/>
    <path class="cls-5" d="M831.84546,345.48429v50.52045q7.86405-2.2314,14.44267-4.665V340.82652q-6.58587,2.42637-14.44267,4.65777"/>
    <path class="cls-5" d="M564.656,350.727v50.5277q6.93249,1.44066,14.44267,2.72966v-50.5277q-7.50657-1.289-14.44267-2.72966"/>
    <path class="cls-5" d="M795.73878,353.45664v50.53492q7.50658-1.29982,14.44267-2.7369V350.727q-6.93248,1.44066-14.44267,2.72968"/>
    <path class="cls-5" d="M600.76271,356.68457v50.53492c4.70831.60659,9.5105,1.16985,14.44267,1.67534V358.35991c-4.93217-.51271-9.73436-1.076-14.44267-1.67534"/>
    <path class="cls-5" d="M759.6321,358.35269v50.54214c4.93216-.51271,9.73436-1.076,14.44267-1.67534V356.68457c-4.70831.60659-9.51051,1.16985-14.44267,1.66812"/>
    <path class="cls-5" d="M636.86939,360.21579v50.54214q7.11662.49829,14.44267.86655V361.07513q-7.33326-.35744-14.44267-.85934"/>
    <path class="cls-5" d="M723.52542,361.07513v50.54935q7.33324-.35746,14.44267-.86655V360.21579q-7.11664.49828-14.44267.85934"/>
    <path class="cls-5" d="M687.41874,361.95614c-2.41914,0-4.82385-.02165-7.22133-.04333v50.54935c2.39748.02168,4.80219.04333,7.22133.04333s4.82385-.02165,7.22134-.04333V361.91281c-2.39749.02168-4.8022.04333-7.22134.04333"/>
    <path class="cls-6" d="M847.81907,299.65047c-20.5086,18.03888-94.23124,33.42033-182.06434,33.42033-68.6749,0-128.70587-9.40941-161.44019-22.13339-3.01129,2.72966-4.65053,5.6182-4.65053,8.6295,0,21.9384,84.06357,42.38923,187.75473,42.38923,103.69839,0,187.75474-20.45083,187.75474-42.38923,0-7.56075-10.00154-14.31992-27.35441-19.91644"/>
    <path class="cls-3" d="M709.08275,253.6361c-95.41552,0-174.14973-18.16165-186.12271-38.15032C494.94847,221.83335,478,230.28953,478,240.1322c0,21.9312,84.06357,42.38925,187.75473,42.38925s187.75474-20.45805,187.75474-42.38924a8.7151,8.7151,0,0,0-.54161-2.85243c-34.43856,9.691-86.1,16.35632-143.88511,16.35632"/>
    <path class="cls-6" d="M846.23758,134.83791c-22.46557,17.47563-94.7367,32.14216-180.48285,32.14216-55.37319,0-105.13543-6.12369-139.50177-15.1648-3.1846,2.81633-4.92494,5.77707-4.92494,8.88224,0,21.93841,84.06357,42.38924,187.75473,42.38924s187.75473-20.45083,187.75473-42.38923c0-10.48539-19.2304-19.40373-50.5999-25.85961"/>
    <g>
      <path class="cls-3" d="M1018.97629,728.41992c-21.09323,6.00441-63.78485-69.24611-92.17382-168.97537s-31.72786-186.18194-10.63463-192.18634c21.10018-6.00639,58.64525,70.70915,87.03422,170.4384s36.87441,184.71692,15.77423,190.72331"/>
      <path class="cls-2" d="M926.80247,559.44455c-28.389-99.72925-30.8319-186.437-9.73172-192.44337l-48.59014,13.8317c-21.07047,6.058-18.67713,92.74981,9.70394,192.45127S950.187,747.94146,971.28906,741.99459l48.59014-13.83169c-21.10018,6.00638-64.68776-68.98909-93.07673-168.71835"/>
      <path class="cls-4" d="M903.62888,400.86042l-48.5832,13.82971q-.53057,6.99852-.53257,15.168l48.59015-13.83169q-.00691-8.17448.52562-15.16605"/>
      <path class="cls-4" d="M982.18668,693.84317l-48.59014,13.83169q4.29917,6.95267,8.44091,12.61364l48.58319-13.82971q-4.13676-5.66994-8.434-12.61562"/>
      <path class="cls-4" d="M903.99214,438.29809l-48.59708,13.83366q.5124,7.062,1.3288,14.63818l48.59708-13.83367q-.81543-7.57266-1.3288-14.63817"/>
      <path class="cls-4" d="M964.63351,661.29879l-48.604,13.83564q3.30537,6.8639,6.58649,13.14152l48.59708-13.83367q-3.28362-6.27316-6.57954-13.14349"/>
      <path class="cls-4" d="M908.15454,474.65429l-48.604,13.83565c.70565,4.69449,1.47866,9.46741,2.34283,14.34952l48.604-13.83565c-.86416-4.88211-1.63024-9.657-2.34283-14.34952"/>
      <path class="cls-4" d="M950.03214,627.91414l-48.604,13.83565c1.84347,4.60334,3.7,9.06783,5.56551,13.43215l48.611-13.83763c-1.87943-4.36036-3.73593-8.82485-5.57246-13.43017"/>
      <path class="cls-4" d="M914.63672,510.35015l-48.611,13.83762q1.46919,6.98113,3.12072,14.12809l48.61792-13.8396q-1.66393-7.15094-3.12766-14.12611"/>
      <path class="cls-4" d="M937.53524,593.93044,888.91731,607.77q2.35155,6.9552,4.78763,13.65358l48.611-13.83762q-2.42768-6.7083-4.78068-13.65556"/>
      <path class="cls-4" d="M926.80247,559.44455c-.66232-2.3267-1.29985-4.64546-1.93542-6.95727l-48.61791,13.83959c.63555,2.31182,1.27308,4.63058,1.93541,6.95728s1.34153,4.63361,2.01876,6.93356l48.61792-13.8396c-.67723-2.29995-1.35644-4.60685-2.01876-6.93356"/>
    </g>
    <g>
      <path class="cls-3" d="M1095.97629,726.41992c-21.09323,6.00441-63.78485-69.24611-92.17382-168.97537s-31.72786-186.18194-10.63463-192.18634c21.10018-6.00639,58.64525,70.70915,87.03422,170.4384s36.87441,184.71692,15.77423,190.72331"/>
      <path class="cls-2" d="M1003.80247,557.44455c-28.389-99.72925-30.8319-186.437-9.73172-192.44337l-48.59014,13.8317c-21.07047,6.058-18.67713,92.74981,9.70394,192.45127s72.00241,174.65731,93.10451,168.71044l48.59014-13.83169c-21.10018,6.00638-64.68776-68.98909-93.07673-168.71835"/>
      <path class="cls-4" d="M980.62888,398.86042l-48.5832,13.82971q-.53057,6.99852-.53257,15.168l48.59015-13.83169q-.00691-8.17448.52562-15.16605"/>
      <path class="cls-4" d="M1059.18668,691.84317l-48.59014,13.83169q4.29917,6.95267,8.44091,12.61364l48.58319-13.82971q-4.13676-5.66994-8.434-12.61562"/>
      <path class="cls-4" d="M980.99214,436.29809l-48.59708,13.83366q.5124,7.062,1.3288,14.63818l48.59708-13.83367q-.81543-7.57266-1.3288-14.63817"/>
      <path class="cls-4" d="M1041.63351,659.29879l-48.604,13.83564q3.30537,6.8639,6.58649,13.14152l48.59708-13.83367q-3.28362-6.27316-6.57954-13.14349"/>
      <path class="cls-4" d="M985.15454,472.65429l-48.604,13.83565c.70565,4.69449,1.47866,9.46741,2.34283,14.34952l48.604-13.83565c-.86416-4.88211-1.63024-9.657-2.34283-14.34952"/>
      <path class="cls-4" d="M1027.03214,625.91414l-48.604,13.83565c1.84347,4.60334,3.7,9.06783,5.56551,13.43215l48.611-13.83763c-1.87943-4.36036-3.73593-8.82485-5.57246-13.43017"/>
      <path class="cls-4" d="M991.63672,508.35015l-48.611,13.83762q1.46919,6.98113,3.12072,14.12809l48.61792-13.8396q-1.66393-7.15094-3.12766-14.12611"/>
      <path class="cls-4" d="M1014.53524,591.93044,965.91731,605.77q2.35155,6.9552,4.78763,13.65358l48.611-13.83762q-2.42768-6.7083-4.78068-13.65556"/>
      <path class="cls-4" d="M1003.80247,557.44455c-.66232-2.3267-1.29985-4.64546-1.93542-6.95727l-48.61791,13.83959c.63555,2.31182,1.27308,4.63058,1.93541,6.95728s1.34153,4.63361,2.01876,6.93356l48.61792-13.8396c-.67723-2.29995-1.35644-4.60685-2.01876-6.93356"/>
    </g>
  </g>
  <g>
    <path class="cls-1" d="M280.41874,687.95614c-103.69116,0-187.75473-21.38958-187.75473-43.328v50.52045c.05777,21.924,84.09246,43.35691,187.75473,43.35691s187.697-21.43291,187.75474-43.35691V644.62813c0,21.9384-84.06357,43.328-187.75474,43.328"/>
    <path class="cls-2" d="M258.75473,608.52145C155.06357,608.52145,71,587.13187,71,565.19343v50.52046c.05777,21.924,84.09246,43.35691,187.75473,43.35691s187.697-21.43291,187.75474-43.35691V565.19343c0,21.93841-84.06357,43.328-187.75474,43.328"/>
    <path class="cls-1" d="M302.08275,529.08675c-103.69117,0-187.75473-21.38959-187.75473-43.328v50.52047c.05777,21.924,84.09246,43.35689,187.75473,43.35689s187.697-21.43292,187.75473-43.35689V485.75874c0,21.93842-84.06356,43.328-187.75473,43.328"/>
    <path class="cls-3" d="M446.50947,400.04148c0,21.9312-84.06357,42.38924-187.75474,42.38924S71,421.97268,71,400.04148c0-21.93842,84.06357-37.04545,187.75473-37.04545s187.75474,15.107,187.75474,37.04545"/>
    <path class="cls-2" d="M258.75473,442.43072C155.06357,442.43072,71,421.04113,71,399.10271v50.52046c.05777,21.924,84.09246,43.3569,187.75473,43.3569s187.697-21.43292,187.75474-43.3569V399.10271c0,21.93842-84.06357,43.328-187.75474,43.328"/>
    <path class="cls-4" d="M99.88534,421.3011v50.51324q6.58585,2.42638,14.44268,4.665V425.95885q-7.864-2.23139-14.44268-4.65775"/>
    <path class="cls-4" d="M403.18145,425.95885v50.52047q7.86405-2.23138,14.44267-4.665V421.3011q-6.58587,2.42636-14.44267,4.65775"/>
    <path class="cls-4" d="M135.992,431.20154v50.52769q6.93249,1.44065,14.44268,2.72966V433.93121q-7.50659-1.289-14.44268-2.72967"/>
    <path class="cls-4" d="M367.07477,433.93121v50.5349q7.50659-1.29984,14.44267-2.73688V431.20154q-6.93248,1.44066-14.44267,2.72967"/>
    <path class="cls-4" d="M172.0987,437.15193v50.53491c4.70832.60659,9.5105,1.16986,14.44267,1.67535V438.82728c-4.93217-.5055-9.73435-1.076-14.44267-1.67535"/>
    <path class="cls-4" d="M330.96809,438.8345v50.53491c4.93217-.51271,9.73436-1.076,14.44267-1.67536V437.15192c-4.70831.61382-9.5105,1.17708-14.44267,1.68258"/>
    <path class="cls-4" d="M208.20538,440.69038v50.54213q7.11663.49826,14.44267.86656V441.54972q-7.33326-.35745-14.44267-.85934"/>
    <path class="cls-4" d="M294.86141,441.54972v50.54935q7.33328-.35746,14.44268-.86656V440.69037q-7.11664.49829-14.44268.85935"/>
    <path class="cls-4" d="M258.75473,442.43072c-2.41914,0-4.82384-.02166-7.22133-.04332v50.54934c2.39749.02167,4.80219.04333,7.22133.04333s4.82385-.02166,7.22134-.04333V442.38739c-2.39749.02167-4.8022.04333-7.22134.04333"/>
    <path class="cls-5" d="M143.21336,507.95712v50.51325q6.58586,2.42638,14.44267,4.665V512.61488q-7.864-2.23138-14.44267-4.65776"/>
    <path class="cls-5" d="M420.50947,512.61488v50.52047q7.864-2.23139,14.44267-4.665V507.95713q-6.58588,2.42637-14.44267,4.65775"/>
    <path class="cls-5" d="M179.32,517.85757v50.52769q6.93249,1.44064,14.44267,2.72967V520.58724q-7.50659-1.289-14.44267-2.72967"/>
    <path class="cls-5" d="M410.40279,520.58724v50.5349q7.50658-1.29984,14.44267-2.73688V517.85757q-6.93247,1.44066-14.44267,2.72967"/>
    <path class="cls-5" d="M215.42672,523.81518V574.3501c4.70831.60659,9.51049,1.16985,14.44267,1.67534V525.49052c-4.93218-.51271-9.73436-1.076-14.44267-1.67534"/>
    <path class="cls-5" d="M374.29611,525.4833v50.54214c4.93216-.51271,9.73436-1.076,14.44267-1.67534V523.81518c-4.70831.60659-9.51051,1.16985-14.44267,1.66812"/>
    <path class="cls-5" d="M251.5334,527.34642v50.54212q7.11661.49829,14.44267.86655V528.20574q-7.33328-.35745-14.44267-.85932"/>
    <path class="cls-5" d="M338.18943,528.20575v50.54934q7.33324-.35746,14.44267-.86655V527.3464q-7.11664.49829-14.44267.85935"/>
    <path class="cls-5" d="M302.08275,529.08675c-2.41914,0-4.82385-.02166-7.22134-.04333v50.54935c2.39749.02168,4.8022.04333,7.22134.04333s4.82385-.02165,7.22134-.04333V529.04342c-2.39749.02167-4.8022.04333-7.22134.04333"/>
    <path class="cls-4" d="M99.88534,587.39183v50.51324q6.58585,2.42636,14.44268,4.665V592.04959q-7.864-2.2314-14.44268-4.65776"/>
    <path class="cls-4" d="M403.18145,592.04959v50.52046q7.86405-2.23141,14.44267-4.665V587.39183q-6.58587,2.42636-14.44267,4.65776"/>
    <path class="cls-4" d="M135.992,597.29227V647.82q6.93249,1.44064,14.44268,2.72965v-50.5277q-7.50659-1.289-14.44268-2.72965"/>
    <path class="cls-4" d="M367.07477,600.02195v50.53492q7.50659-1.29984,14.44267-2.7369v-50.5277q-6.93248,1.44065-14.44267,2.72968"/>
    <path class="cls-4" d="M172.0987,603.24988v50.53491c4.70832.60659,9.5105,1.16985,14.44267,1.67534V604.92521c-4.93217-.5127-9.73435-1.076-14.44267-1.67533"/>
    <path class="cls-4" d="M330.96809,604.918v50.54213c4.93217-.51271,9.73436-1.076,14.44267-1.67534V603.24988c-4.70831.60659-9.5105,1.16984-14.44267,1.66812"/>
    <path class="cls-4" d="M208.20538,606.7811v50.54213q7.11663.49829,14.44267.86655V607.64043q-7.33326-.35742-14.44267-.85933"/>
    <path class="cls-4" d="M294.86141,607.64043v50.54935q7.33328-.35747,14.44268-.86655V606.7811q-7.11664.49829-14.44268.85933"/>
    <path class="cls-4" d="M258.75473,608.52145c-2.41914,0-4.82384-.02165-7.22133-.04333v50.54935c2.39749.02168,4.80219.04333,7.22133.04333s4.82385-.02165,7.22134-.04333V608.47812c-2.39749.02168-4.8022.04333-7.22134.04333"/>
    <path class="cls-5" d="M121.54935,666.82652v50.51324q6.58585,2.42635,14.44267,4.665V671.48429q-7.864-2.23142-14.44267-4.65777"/>
    <path class="cls-5" d="M398.84546,671.48429v50.52045q7.86405-2.2314,14.44267-4.665V666.82652q-6.58587,2.42637-14.44267,4.65777"/>
    <path class="cls-5" d="M157.656,676.727v50.5277q6.93249,1.44066,14.44267,2.72966v-50.5277q-7.50657-1.289-14.44267-2.72966"/>
    <path class="cls-5" d="M388.73878,679.45664v50.53492q7.50658-1.29983,14.44267-2.7369V676.727q-6.93248,1.44066-14.44267,2.72968"/>
    <path class="cls-5" d="M193.76271,682.68457v50.53492c4.70831.60659,9.5105,1.16985,14.44267,1.67534V684.35991c-4.93217-.51271-9.73436-1.076-14.44267-1.67534"/>
    <path class="cls-5" d="M352.6321,684.35269v50.54214c4.93216-.51271,9.73436-1.076,14.44267-1.67534V682.68457c-4.70831.60659-9.51051,1.16985-14.44267,1.66812"/>
    <path class="cls-5" d="M229.86939,686.21579v50.54214q7.11661.49828,14.44267.86655V687.07513q-7.33326-.35743-14.44267-.85934"/>
    <path class="cls-5" d="M316.52542,687.07513v50.54935q7.33324-.35746,14.44267-.86655V686.21579q-7.11665.49829-14.44267.85934"/>
    <path class="cls-5" d="M280.41874,687.95614c-2.41914,0-4.82385-.02165-7.22133-.04333v50.54935c2.39748.02168,4.80219.04333,7.22133.04333s4.82385-.02165,7.22134-.04333V687.91281c-2.39749.02168-4.8022.04333-7.22134.04333"/>
    <path class="cls-6" d="M440.81907,625.65047c-20.5086,18.03888-94.23124,33.42033-182.06434,33.42033-68.6749,0-128.70587-9.40941-161.44019-22.13339-3.01129,2.72966-4.65053,5.6182-4.65053,8.6295,0,21.9384,84.06357,42.38923,187.75473,42.38923,103.69839,0,187.75474-20.45083,187.75474-42.38923,0-7.56075-10.00154-14.31992-27.35441-19.91644"/>
    <path class="cls-3" d="M302.08275,579.6361c-95.41552,0-174.14973-18.16165-186.12271-38.15032C87.94847,547.83335,71,556.28953,71,566.1322c0,21.9312,84.06357,42.38925,187.75473,42.38925s187.75474-20.458,187.75474-42.38924a8.7151,8.7151,0,0,0-.54161-2.85243c-34.43856,9.691-86.1,16.35632-143.88511,16.35632"/>
    <path class="cls-6" d="M439.23758,460.83791c-22.46557,17.47563-94.7367,32.14216-180.48285,32.14216-55.37319,0-105.13543-6.12369-139.50177-15.1648-3.1846,2.81633-4.92494,5.77707-4.92494,8.88224,0,21.93841,84.06357,42.38924,187.75473,42.38924s187.75473-20.45083,187.75473-42.38923c0-10.48539-19.2304-19.40373-50.5999-25.85961"/>
  </g>
</svg>
