<svg id="Ebene_1" data-name="Ebene 1" xmlns="http://www.w3.org/2000/svg" viewBox="0 0 682.50549 770.50549">
  <defs>
    <style>
      .cls-1 {
        fill: #e4af18;
      }

      .cls-2 {
        fill: #f4bf1a;
      }

      .cls-3 {
        fill: #ffd949;
      }

      .cls-4 {
        fill: #dca815;
      }

      .cls-5 {
        fill: #c49214;
      }

      .cls-6 {
        fill: #fcc62d;
      }
    </style>
  </defs>
  <title>coins</title>
  <g>
    <path class="cls-1" d="M219.41874,716.95614c-103.69116,0-187.75473-21.38958-187.75473-43.328v50.52045c.05777,21.924,84.09246,43.35691,187.75473,43.35691s187.697-21.43291,187.75474-43.35691V673.62813c0,21.9384-84.06357,43.328-187.75474,43.328"/>
    <path class="cls-2" d="M197.75473,637.52145C94.06357,637.52145,10,616.13187,10,594.19343v50.52046c.05777,21.924,84.09246,43.35691,187.75473,43.35691s187.697-21.43291,187.75474-43.35691V594.19343c0,21.93841-84.06357,43.328-187.75474,43.328"/>
    <path class="cls-1" d="M241.08275,558.08675c-103.69117,0-187.75473-21.38959-187.75473-43.328v50.52047c.05777,21.924,84.09246,43.35689,187.75473,43.35689s187.697-21.43292,187.75473-43.35689V514.75874c0,21.93842-84.06356,43.328-187.75473,43.328"/>
    <path class="cls-3" d="M385.50947,429.04148c0,21.9312-84.06357,42.38924-187.75474,42.38924S10,450.97268,10,429.04148C10,407.10306,94.06357,391.996,197.75473,391.996s187.75474,15.107,187.75474,37.04545"/>
    <path class="cls-2" d="M197.75473,471.43072C94.06357,471.43072,10,450.04113,10,428.10271v50.52046c.05777,21.924,84.09246,43.3569,187.75473,43.3569s187.697-21.43292,187.75474-43.3569V428.10271c0,21.93842-84.06357,43.328-187.75474,43.328"/>
    <path class="cls-4" d="M38.88534,450.3011v50.51324q6.58586,2.42638,14.44268,4.665V454.95885q-7.864-2.23139-14.44268-4.65775"/>
    <path class="cls-4" d="M342.18145,454.95885v50.52047q7.86405-2.23138,14.44267-4.665V450.3011q-6.58587,2.42636-14.44267,4.65775"/>
    <path class="cls-4" d="M74.992,460.20154v50.52769q6.93249,1.44065,14.44268,2.72966V462.93121q-7.50659-1.289-14.44268-2.72967"/>
    <path class="cls-4" d="M306.07477,462.93121v50.5349q7.50659-1.29984,14.44267-2.73688V460.20154q-6.93248,1.44066-14.44267,2.72967"/>
    <path class="cls-4" d="M111.0987,466.15193v50.53491c4.70832.60659,9.5105,1.16986,14.44267,1.67535V467.82728c-4.93217-.5055-9.73435-1.076-14.44267-1.67535"/>
    <path class="cls-4" d="M269.96809,467.8345v50.53491c4.93217-.51271,9.73436-1.076,14.44267-1.67536V466.15192c-4.70831.61382-9.5105,1.17708-14.44267,1.68258"/>
    <path class="cls-4" d="M147.20538,469.69038v50.54213q7.11663.49825,14.44267.86656V470.54972q-7.33326-.35745-14.44267-.85934"/>
    <path class="cls-4" d="M233.86141,470.54972v50.54935q7.33327-.35746,14.44268-.86656V469.69037q-7.11664.49829-14.44268.85935"/>
    <path class="cls-4" d="M197.75473,471.43072c-2.41914,0-4.82384-.02166-7.22133-.04332v50.54934c2.39749.02167,4.80219.04333,7.22133.04333s4.82385-.02166,7.22134-.04333V471.38739c-2.39749.02167-4.8022.04333-7.22134.04333"/>
    <path class="cls-5" d="M82.21336,536.95712v50.51325q6.58586,2.42638,14.44267,4.665V541.61488q-7.864-2.23138-14.44267-4.65776"/>
    <path class="cls-5" d="M385.50947,541.61488v50.52047q7.864-2.23139,14.44267-4.665V536.95713q-6.58588,2.42637-14.44267,4.65775"/>
    <path class="cls-5" d="M118.32,546.85757v50.52769q6.93249,1.44064,14.44267,2.72967V549.58724q-7.50659-1.289-14.44267-2.72967"/>
    <path class="cls-5" d="M349.40279,549.58724v50.5349q7.50658-1.29984,14.44267-2.73688V546.85757q-6.93247,1.44066-14.44267,2.72967"/>
    <path class="cls-5" d="M154.42672,552.81518V603.3501c4.70831.60659,9.51049,1.16985,14.44267,1.67534V554.49052c-4.93218-.51271-9.73436-1.076-14.44267-1.67534"/>
    <path class="cls-5" d="M313.29611,554.4833v50.54214c4.93216-.51271,9.73436-1.076,14.44267-1.67534V552.81518c-4.70831.60659-9.51051,1.16985-14.44267,1.66812"/>
    <path class="cls-5" d="M190.5334,556.34642v50.54212q7.11661.49829,14.44267.86655V557.20574q-7.33327-.35745-14.44267-.85932"/>
    <path class="cls-5" d="M277.18943,557.20575v50.54934q7.33324-.35746,14.44267-.86655V556.3464q-7.11664.49829-14.44267.85935"/>
    <path class="cls-5" d="M241.08275,558.08675c-2.41914,0-4.82385-.02166-7.22134-.04333v50.54935c2.39749.02168,4.8022.04333,7.22134.04333s4.82385-.02165,7.22134-.04333V558.04342c-2.39749.02167-4.8022.04333-7.22134.04333"/>
    <path class="cls-4" d="M38.88534,616.39183v50.51324q6.58586,2.42636,14.44268,4.665V621.04959q-7.864-2.2314-14.44268-4.65776"/>
    <path class="cls-4" d="M342.18145,621.04959v50.52046q7.86405-2.23141,14.44267-4.665V616.39183q-6.58587,2.42636-14.44267,4.65776"/>
    <path class="cls-4" d="M74.992,626.29227V676.82q6.93249,1.44064,14.44268,2.72965v-50.5277q-7.50659-1.289-14.44268-2.72965"/>
    <path class="cls-4" d="M306.07477,629.02195v50.53492q7.50659-1.29984,14.44267-2.7369v-50.5277q-6.93248,1.44065-14.44267,2.72968"/>
    <path class="cls-4" d="M111.0987,632.24988v50.53491c4.70832.60659,9.5105,1.16985,14.44267,1.67534V633.92521c-4.93217-.5127-9.73435-1.076-14.44267-1.67533"/>
    <path class="cls-4" d="M269.96809,633.918v50.54213c4.93217-.51271,9.73436-1.076,14.44267-1.67534V632.24988c-4.70831.60659-9.5105,1.16984-14.44267,1.66812"/>
    <path class="cls-4" d="M147.20538,635.7811v50.54213q7.11663.49829,14.44267.86655V636.64043q-7.33326-.35742-14.44267-.85933"/>
    <path class="cls-4" d="M233.86141,636.64043v50.54935q7.33327-.35747,14.44268-.86655V635.7811q-7.11664.49829-14.44268.85933"/>
    <path class="cls-4" d="M197.75473,637.52145c-2.41914,0-4.82384-.02165-7.22133-.04333v50.54935c2.39749.02168,4.80219.04333,7.22133.04333s4.82385-.02165,7.22134-.04333V637.47812c-2.39749.02168-4.8022.04333-7.22134.04333"/>
    <path class="cls-5" d="M60.54935,695.82652v50.51324q6.58586,2.42635,14.44267,4.665V700.48429q-7.864-2.23142-14.44267-4.65777"/>
    <path class="cls-5" d="M363.84546,700.48429v50.52045q7.86405-2.2314,14.44267-4.665V695.82652q-6.58587,2.42637-14.44267,4.65777"/>
    <path class="cls-5" d="M96.656,705.727v50.5277q6.93249,1.44066,14.44267,2.72966v-50.5277q-7.50657-1.289-14.44267-2.72966"/>
    <path class="cls-5" d="M327.73878,708.45664v50.53492q7.50658-1.29983,14.44267-2.7369V705.727q-6.93248,1.44066-14.44267,2.72968"/>
    <path class="cls-5" d="M132.76271,711.68457v50.53492c4.70831.60659,9.5105,1.16985,14.44267,1.67534V713.35991c-4.93217-.51271-9.73436-1.076-14.44267-1.67534"/>
    <path class="cls-5" d="M291.6321,713.35269v50.54214c4.93216-.51271,9.73436-1.076,14.44267-1.67534V711.68457c-4.70831.60659-9.51051,1.16985-14.44267,1.66812"/>
    <path class="cls-5" d="M168.86939,715.21579v50.54214q7.11661.49828,14.44267.86655V716.07513q-7.33326-.35743-14.44267-.85934"/>
    <path class="cls-5" d="M255.52542,716.07513v50.54935q7.33324-.35746,14.44267-.86655V715.21579q-7.11665.49829-14.44267.85934"/>
    <path class="cls-5" d="M219.41874,716.95614c-2.41914,0-4.82385-.02165-7.22133-.04333v50.54935c2.39748.02168,4.80219.04333,7.22133.04333s4.82385-.02165,7.22134-.04333V716.91281c-2.39749.02168-4.8022.04333-7.22134.04333"/>
    <path class="cls-6" d="M379.81907,654.65047c-20.5086,18.03888-94.23124,33.42033-182.06434,33.42033-68.6749,0-128.70587-9.40941-161.44019-22.13339-3.01129,2.72966-4.65053,5.6182-4.65053,8.6295,0,21.9384,84.06357,42.38923,187.75473,42.38923,103.69839,0,187.75474-20.45083,187.75474-42.38923,0-7.56075-10.00154-14.31992-27.35441-19.91644"/>
    <path class="cls-3" d="M241.08275,608.6361c-95.41552,0-174.14973-18.16165-186.12271-38.15032C26.94847,576.83335,10,585.28953,10,595.1322c0,21.9312,84.06357,42.38925,187.75473,42.38925s187.75474-20.458,187.75474-42.38924a8.7151,8.7151,0,0,0-.54161-2.85243c-34.43856,9.691-86.1,16.35632-143.88511,16.35632"/>
    <path class="cls-6" d="M378.23758,489.83791c-22.46557,17.47563-94.7367,32.14216-180.48285,32.14216-55.37319,0-105.13543-6.12369-139.50177-15.1648-3.1846,2.81633-4.92494,5.77707-4.92494,8.88224,0,21.93841,84.06357,42.38924,187.75473,42.38924s187.75473-20.45083,187.75473-42.38923c0-10.48539-19.2304-19.40373-50.5999-25.85961"/>
    <path class="cls-1" d="M235.41874,390.95614c-103.69116,0-187.75473-21.38958-187.75473-43.328v50.52045c.05777,21.924,84.09246,43.35691,187.75473,43.35691s187.697-21.43291,187.75474-43.35691V347.62813c0,21.9384-84.06357,43.328-187.75474,43.328"/>
    <path class="cls-2" d="M213.75473,311.52145C110.06357,311.52145,26,290.13187,26,268.19343v50.52046c.05777,21.924,84.09246,43.35691,187.75473,43.35691s187.697-21.43291,187.75474-43.35691V268.19343c0,21.93841-84.06357,43.328-187.75474,43.328"/>
    <path class="cls-1" d="M257.08275,232.08675c-103.69117,0-187.75473-21.38959-187.75473-43.328v50.52047c.05777,21.924,84.09246,43.35689,187.75473,43.35689s187.697-21.43292,187.75473-43.35689V188.75874c0,21.93842-84.06356,43.328-187.75473,43.328"/>
    <path class="cls-3" d="M401.50947,103.04148c0,21.9312-84.06357,42.38924-187.75474,42.38924S26,124.97268,26,103.04148C26,81.10306,110.06357,65.996,213.75473,65.996s187.75474,15.107,187.75474,37.04545"/>
    <path class="cls-2" d="M213.75473,145.43072C110.06357,145.43072,26,124.04113,26,102.10271v50.52046c.05777,21.924,84.09246,43.3569,187.75473,43.3569s187.697-21.43292,187.75474-43.3569V102.10271c0,21.93842-84.06357,43.328-187.75474,43.328"/>
    <path class="cls-4" d="M54.88534,124.3011v50.51324q6.58586,2.42639,14.44268,4.665V128.95885q-7.864-2.23139-14.44268-4.65775"/>
    <path class="cls-4" d="M358.18145,128.95885v50.52047q7.86405-2.23139,14.44267-4.665V124.3011q-6.58587,2.42636-14.44267,4.65775"/>
    <path class="cls-4" d="M90.992,134.20154v50.52769q6.93249,1.44064,14.44268,2.72966V136.93121q-7.50659-1.289-14.44268-2.72967"/>
    <path class="cls-4" d="M322.07477,136.93121v50.5349q7.50659-1.29984,14.44267-2.73688V134.20154q-6.93248,1.44066-14.44267,2.72967"/>
    <path class="cls-4" d="M127.0987,140.15193v50.53491c4.70832.60659,9.5105,1.16986,14.44267,1.67535V141.82728c-4.93217-.5055-9.73435-1.076-14.44267-1.67535"/>
    <path class="cls-4" d="M285.96809,141.8345v50.53491c4.93217-.51271,9.73436-1.076,14.44267-1.67536V140.15192c-4.70831.61382-9.5105,1.17708-14.44267,1.68258"/>
    <path class="cls-4" d="M163.20538,143.69038v50.54213q7.11663.49826,14.44267.86656V144.54972q-7.33326-.35745-14.44267-.85934"/>
    <path class="cls-4" d="M249.86141,144.54972v50.54935q7.33327-.35747,14.44268-.86656V143.69037q-7.11664.49828-14.44268.85935"/>
    <path class="cls-4" d="M213.75473,145.43072c-2.41914,0-4.82384-.02166-7.22133-.04332v50.54934c2.39749.02167,4.80219.04333,7.22133.04333s4.82385-.02166,7.22134-.04333V145.38739c-2.39749.02167-4.8022.04333-7.22134.04333"/>
    <path class="cls-5" d="M98.21336,210.95712v50.51325q6.58586,2.42638,14.44267,4.665V215.61488q-7.864-2.23139-14.44267-4.65776"/>
    <path class="cls-5" d="M401.50947,215.61488v50.52047q7.864-2.23139,14.44267-4.665V210.95713q-6.58588,2.42637-14.44267,4.65775"/>
    <path class="cls-5" d="M134.32,220.85757v50.52769q6.93249,1.44064,14.44267,2.72967V223.58724q-7.50659-1.289-14.44267-2.72967"/>
    <path class="cls-5" d="M365.40279,223.58724v50.5349q7.50658-1.29984,14.44267-2.73688V220.85757q-6.93247,1.44066-14.44267,2.72967"/>
    <path class="cls-5" d="M170.42672,226.81518V277.3501c4.70831.60659,9.51049,1.16985,14.44267,1.67534V228.49052c-4.93218-.51271-9.73436-1.076-14.44267-1.67534"/>
    <path class="cls-5" d="M329.29611,228.4833v50.54214c4.93216-.51271,9.73436-1.076,14.44267-1.67534V226.81518c-4.70831.60659-9.51051,1.16985-14.44267,1.66812"/>
    <path class="cls-5" d="M206.5334,230.34642v50.54212q7.11661.49829,14.44267.86655V231.20574q-7.33327-.35745-14.44267-.85932"/>
    <path class="cls-5" d="M293.18943,231.20575v50.54934q7.33324-.35747,14.44267-.86655V230.3464q-7.11664.49829-14.44267.85935"/>
    <path class="cls-5" d="M257.08275,232.08675c-2.41914,0-4.82385-.02166-7.22134-.04333v50.54935c2.39749.02168,4.8022.04333,7.22134.04333s4.82385-.02165,7.22134-.04333V232.04342c-2.39749.02167-4.8022.04333-7.22134.04333"/>
    <path class="cls-4" d="M54.88534,290.39183v50.51324q6.58586,2.42636,14.44268,4.665V295.04959q-7.864-2.2314-14.44268-4.65776"/>
    <path class="cls-4" d="M358.18145,295.04959v50.52046q7.86405-2.23141,14.44267-4.665V290.39183q-6.58587,2.42636-14.44267,4.65776"/>
    <path class="cls-4" d="M90.992,300.29227V350.82q6.93249,1.44064,14.44268,2.72965v-50.5277q-7.50659-1.289-14.44268-2.72965"/>
    <path class="cls-4" d="M322.07477,303.022v50.53492q7.50659-1.29984,14.44267-2.7369v-50.5277q-6.93248,1.44065-14.44267,2.72968"/>
    <path class="cls-4" d="M127.0987,306.24988v50.53491c4.70832.60659,9.5105,1.16985,14.44267,1.67534V307.92521c-4.93217-.5127-9.73435-1.076-14.44267-1.67533"/>
    <path class="cls-4" d="M285.96809,307.918v50.54213c4.93217-.51271,9.73436-1.076,14.44267-1.67534V306.24988c-4.70831.60659-9.5105,1.16984-14.44267,1.66812"/>
    <path class="cls-4" d="M163.20538,309.7811v50.54213q7.11663.49828,14.44267.86655V310.64043q-7.33326-.35742-14.44267-.85933"/>
    <path class="cls-4" d="M249.86141,310.64043v50.54935q7.33327-.35746,14.44268-.86655V309.7811q-7.11664.49829-14.44268.85933"/>
    <path class="cls-4" d="M213.75473,311.52145c-2.41914,0-4.82384-.02165-7.22133-.04333v50.54935c2.39749.02168,4.80219.04333,7.22133.04333s4.82385-.02165,7.22134-.04333V311.47812c-2.39749.02168-4.8022.04333-7.22134.04333"/>
    <path class="cls-5" d="M76.54935,369.82652v50.51324q6.58585,2.42636,14.44267,4.665V374.48429q-7.864-2.23141-14.44267-4.65777"/>
    <path class="cls-5" d="M379.84546,374.48429v50.52045q7.86405-2.2314,14.44267-4.665V369.82652q-6.58587,2.42637-14.44267,4.65777"/>
    <path class="cls-5" d="M112.656,379.727v50.5277q6.93249,1.44066,14.44267,2.72966v-50.5277q-7.50657-1.289-14.44267-2.72966"/>
    <path class="cls-5" d="M343.73878,382.45664v50.53492q7.50658-1.29982,14.44267-2.7369V379.727q-6.93248,1.44066-14.44267,2.72968"/>
    <path class="cls-5" d="M148.76271,385.68457v50.53492c4.70831.60659,9.5105,1.16985,14.44267,1.67534V387.35991c-4.93217-.51271-9.73436-1.076-14.44267-1.67534"/>
    <path class="cls-5" d="M307.6321,387.35269v50.54214c4.93216-.51271,9.73436-1.076,14.44267-1.67534V385.68457c-4.70831.60659-9.51051,1.16985-14.44267,1.66812"/>
    <path class="cls-5" d="M184.86939,389.21579v50.54214q7.11661.49829,14.44267.86655V390.07513q-7.33326-.35744-14.44267-.85934"/>
    <path class="cls-5" d="M271.52542,390.07513v50.54935q7.33324-.35746,14.44267-.86655V389.21579q-7.11665.49828-14.44267.85934"/>
    <path class="cls-5" d="M235.41874,390.95614c-2.41914,0-4.82385-.02165-7.22133-.04333v50.54935c2.39748.02168,4.80219.04333,7.22133.04333s4.82385-.02165,7.22134-.04333V390.91281c-2.39749.02168-4.8022.04333-7.22134.04333"/>
    <path class="cls-6" d="M395.81907,328.65047c-20.5086,18.03888-94.23124,33.42033-182.06434,33.42033-68.6749,0-128.70587-9.40941-161.44019-22.13339-3.01129,2.72966-4.65053,5.6182-4.65053,8.6295,0,21.9384,84.06357,42.38923,187.75473,42.38923,103.69839,0,187.75474-20.45083,187.75474-42.38923,0-7.56075-10.00154-14.31992-27.35441-19.91644"/>
    <path class="cls-3" d="M257.08275,282.6361c-95.41552,0-174.14973-18.16165-186.12271-38.15032C42.94847,250.83335,26,259.28953,26,269.1322c0,21.9312,84.06357,42.38925,187.75473,42.38925s187.75474-20.45805,187.75474-42.38924a8.7151,8.7151,0,0,0-.54161-2.85243c-34.43856,9.691-86.1,16.35632-143.88511,16.35632"/>
    <path class="cls-6" d="M394.23758,163.83791c-22.46557,17.47563-94.7367,32.14216-180.48285,32.14216-55.37319,0-105.13543-6.12369-139.50177-15.1648-3.1846,2.81633-4.92494,5.77707-4.92494,8.88224,0,21.93841,84.06357,42.38924,187.75473,42.38924s187.75473-20.45083,187.75473-42.38923c0-10.48539-19.2304-19.40373-50.5999-25.85961"/>
    <g>
      <path class="cls-3" d="M566.97629,757.41992c-21.09323,6.00441-63.78485-69.24611-92.17382-168.97537s-31.72786-186.18194-10.63463-192.18634c21.10018-6.00639,58.64525,70.70915,87.03422,170.4384s36.87441,184.71692,15.77423,190.72331"/>
      <path class="cls-2" d="M474.80247,588.44455c-28.389-99.72925-30.8319-186.437-9.73172-192.44337l-48.59014,13.8317c-21.07047,6.058-18.67713,92.74981,9.70394,192.45127S498.187,776.94146,519.28906,770.99459L567.8792,757.1629c-21.10018,6.00638-64.68776-68.98909-93.07673-168.71835"/>
      <path class="cls-4" d="M451.62888,429.86042l-48.5832,13.82971q-.53056,6.99852-.53257,15.168l48.59015-13.83169q-.00691-8.17448.52562-15.16605"/>
      <path class="cls-4" d="M530.18668,722.84317l-48.59014,13.83169q4.29917,6.95267,8.44091,12.61364l48.58319-13.82971q-4.13676-5.66994-8.434-12.61562"/>
      <path class="cls-4" d="M451.99214,467.29809l-48.59708,13.83366q.5124,7.062,1.3288,14.63818l48.59708-13.83367q-.81543-7.57266-1.3288-14.63817"/>
      <path class="cls-4" d="M512.63351,690.29879l-48.604,13.83564q3.30537,6.8639,6.58649,13.14152L519.213,703.44228q-3.28362-6.27316-6.57954-13.14349"/>
      <path class="cls-4" d="M456.15454,503.65429l-48.604,13.83565c.70565,4.69449,1.47866,9.46741,2.34283,14.34952l48.604-13.83565c-.86416-4.88211-1.63024-9.657-2.34283-14.34952"/>
      <path class="cls-4" d="M498.03214,656.91414l-48.604,13.83565c1.84347,4.60334,3.7,9.06783,5.56551,13.43215l48.611-13.83763c-1.87943-4.36036-3.73593-8.82485-5.57246-13.43017"/>
      <path class="cls-4" d="M462.63672,539.35015l-48.611,13.83762q1.46919,6.98113,3.12072,14.12809l48.61792-13.8396q-1.66394-7.15094-3.12766-14.12611"/>
      <path class="cls-4" d="M485.53524,622.93044,436.91731,636.77q2.35155,6.9552,4.78763,13.65358l48.611-13.83762q-2.42768-6.7083-4.78068-13.65556"/>
      <path class="cls-4" d="M474.80247,588.44455c-.66232-2.3267-1.29985-4.64546-1.93542-6.95727l-48.61791,13.83959c.63555,2.31182,1.27308,4.63058,1.93541,6.95728s1.34153,4.63361,2.01876,6.93356l48.61792-13.8396c-.67723-2.29995-1.35644-4.60685-2.01876-6.93356"/>
    </g>
    <g>
      <path class="cls-3" d="M643.97629,755.41992c-21.09323,6.00441-63.78485-69.24611-92.17382-168.97537s-31.72786-186.18194-10.63463-192.18634c21.10018-6.00639,58.64525,70.70915,87.03422,170.4384s36.87441,184.71692,15.77423,190.72331"/>
      <path class="cls-2" d="M551.80247,586.44455c-28.389-99.72925-30.8319-186.437-9.73172-192.44337l-48.59014,13.8317c-21.07047,6.058-18.67713,92.74981,9.70394,192.45127S575.187,774.94146,596.28906,768.99459L644.8792,755.1629c-21.10018,6.00638-64.68776-68.98909-93.07673-168.71835"/>
      <path class="cls-4" d="M528.62888,427.86042l-48.5832,13.82971q-.53056,6.99852-.53257,15.168l48.59015-13.83169q-.00691-8.17448.52562-15.16605"/>
      <path class="cls-4" d="M607.18668,720.84317l-48.59014,13.83169q4.29917,6.95267,8.44091,12.61364l48.58319-13.82971q-4.13676-5.66994-8.434-12.61562"/>
      <path class="cls-4" d="M528.99214,465.29809l-48.59708,13.83366q.5124,7.062,1.3288,14.63818l48.59708-13.83367q-.81543-7.57266-1.3288-14.63817"/>
      <path class="cls-4" d="M589.63351,688.29879l-48.604,13.83564q3.30537,6.8639,6.58649,13.14152L596.213,701.44228q-3.28362-6.27316-6.57954-13.14349"/>
      <path class="cls-4" d="M533.15454,501.65429l-48.604,13.83565c.70565,4.69449,1.47866,9.46741,2.34283,14.34952l48.604-13.83565c-.86416-4.88211-1.63024-9.657-2.34283-14.34952"/>
      <path class="cls-4" d="M575.03214,654.91414l-48.604,13.83565c1.84347,4.60334,3.7,9.06783,5.56551,13.43215l48.611-13.83763c-1.87943-4.36036-3.73593-8.82485-5.57246-13.43017"/>
      <path class="cls-4" d="M539.63672,537.35015l-48.611,13.83762q1.46919,6.98113,3.12072,14.12809l48.61792-13.8396q-1.66393-7.15094-3.12766-14.12611"/>
      <path class="cls-4" d="M562.53524,620.93044,513.91731,634.77q2.35155,6.9552,4.78763,13.65358l48.611-13.83762q-2.42768-6.7083-4.78068-13.65556"/>
      <path class="cls-4" d="M551.80247,586.44455c-.66232-2.3267-1.29985-4.64546-1.93542-6.95727l-48.61791,13.83959c.63555,2.31182,1.27308,4.63058,1.93541,6.95728s1.34153,4.63361,2.01876,6.93356l48.61792-13.8396c-.67723-2.29995-1.35644-4.60685-2.01876-6.93356"/>
    </g>
  </g>
</svg>
