<svg id="Ebene_1" data-name="Ebene 1" xmlns="http://www.w3.org/2000/svg" viewBox="0 0 529.50549 777.50549">
  <defs>
    <style>
      .cls-1 {
        fill: #e4af18;
      }

      .cls-2 {
        fill: #f4bf1a;
      }

      .cls-3 {
        fill: #ffd949;
      }

      .cls-4 {
        fill: #dca815;
      }

      .cls-5 {
        fill: #c49214;
      }

      .cls-6 {
        fill: #fcc62d;
      }
    </style>
  </defs>
  <title>coins</title>
  <g>
    <path class="cls-1" d="M219.41874,723.95614c-103.69116,0-187.75473-21.38958-187.75473-43.328v50.52045c.05777,21.924,84.09246,43.35691,187.75473,43.35691s187.697-21.43291,187.75474-43.35691V680.62813c0,21.9384-84.06357,43.328-187.75474,43.328"/>
    <path class="cls-2" d="M197.75473,644.52145C94.06357,644.52145,10,623.13187,10,601.19343v50.52046c.05777,21.924,84.09246,43.35691,187.75473,43.35691s187.697-21.43291,187.75474-43.35691V601.19343c0,21.93841-84.06357,43.328-187.75474,43.328"/>
    <path class="cls-1" d="M241.08275,565.08675c-103.69117,0-187.75473-21.38959-187.75473-43.328v50.52047c.05777,21.924,84.09246,43.35689,187.75473,43.35689s187.697-21.43292,187.75473-43.35689V521.75874c0,21.93842-84.06356,43.328-187.75473,43.328"/>
    <path class="cls-3" d="M385.50947,436.04148c0,21.9312-84.06357,42.38924-187.75474,42.38924S10,457.97268,10,436.04148C10,414.10306,94.06357,398.996,197.75473,398.996s187.75474,15.107,187.75474,37.04545"/>
    <path class="cls-2" d="M197.75473,478.43072C94.06357,478.43072,10,457.04113,10,435.10271v50.52046c.05777,21.924,84.09246,43.3569,187.75473,43.3569s187.697-21.43292,187.75474-43.3569V435.10271c0,21.93842-84.06357,43.328-187.75474,43.328"/>
    <path class="cls-4" d="M38.88534,457.3011v50.51324q6.58586,2.42638,14.44268,4.665V461.95885q-7.864-2.23139-14.44268-4.65775"/>
    <path class="cls-4" d="M342.18145,461.95885v50.52047q7.86405-2.23139,14.44267-4.665V457.3011q-6.58587,2.42636-14.44267,4.65775"/>
    <path class="cls-4" d="M74.992,467.20154v50.52769q6.93249,1.44065,14.44268,2.72966V469.93121q-7.50659-1.289-14.44268-2.72967"/>
    <path class="cls-4" d="M306.07477,469.93121v50.5349q7.50659-1.29984,14.44267-2.73688V467.20154q-6.93248,1.44066-14.44267,2.72967"/>
    <path class="cls-4" d="M111.0987,473.15193v50.53491c4.70832.60659,9.5105,1.16986,14.44267,1.67535V474.82728c-4.93217-.5055-9.73435-1.076-14.44267-1.67535"/>
    <path class="cls-4" d="M269.96809,474.8345v50.53491c4.93217-.51271,9.73436-1.076,14.44267-1.67536V473.15192c-4.70831.61382-9.5105,1.17708-14.44267,1.68258"/>
    <path class="cls-4" d="M147.20538,476.69038v50.54213q7.11663.49825,14.44267.86656V477.54972q-7.33326-.35745-14.44267-.85934"/>
    <path class="cls-4" d="M233.86141,477.54972v50.54935q7.33327-.35746,14.44268-.86656V476.69037q-7.11664.49829-14.44268.85935"/>
    <path class="cls-4" d="M197.75473,478.43072c-2.41914,0-4.82384-.02166-7.22133-.04332v50.54934c2.39749.02167,4.80219.04333,7.22133.04333s4.82385-.02166,7.22134-.04333V478.38739c-2.39749.02167-4.8022.04333-7.22134.04333"/>
    <path class="cls-5" d="M82.21336,543.95712v50.51325q6.58586,2.42638,14.44267,4.665V548.61488q-7.864-2.23138-14.44267-4.65776"/>
    <path class="cls-5" d="M385.50947,548.61488v50.52047q7.864-2.23139,14.44267-4.665V543.95713q-6.58588,2.42637-14.44267,4.65775"/>
    <path class="cls-5" d="M118.32,553.85757v50.52769q6.93249,1.44064,14.44267,2.72967V556.58724q-7.50659-1.289-14.44267-2.72967"/>
    <path class="cls-5" d="M349.40279,556.58724v50.5349q7.50658-1.29984,14.44267-2.73688V553.85757q-6.93247,1.44066-14.44267,2.72967"/>
    <path class="cls-5" d="M154.42672,559.81518V610.3501c4.70831.60659,9.51049,1.16985,14.44267,1.67534V561.49052c-4.93218-.51271-9.73436-1.076-14.44267-1.67534"/>
    <path class="cls-5" d="M313.29611,561.4833v50.54214c4.93216-.51271,9.73436-1.076,14.44267-1.67534V559.81518c-4.70831.60659-9.51051,1.16985-14.44267,1.66812"/>
    <path class="cls-5" d="M190.5334,563.34642v50.54212q7.11661.49829,14.44267.86655V564.20574q-7.33327-.35745-14.44267-.85932"/>
    <path class="cls-5" d="M277.18943,564.20575v50.54934q7.33324-.35746,14.44267-.86655V563.3464q-7.11664.49829-14.44267.85935"/>
    <path class="cls-5" d="M241.08275,565.08675c-2.41914,0-4.82385-.02166-7.22134-.04333v50.54935c2.39749.02168,4.8022.04333,7.22134.04333s4.82385-.02165,7.22134-.04333V565.04342c-2.39749.02167-4.8022.04333-7.22134.04333"/>
    <path class="cls-4" d="M38.88534,623.39183v50.51324q6.58586,2.42636,14.44268,4.665V628.04959q-7.864-2.2314-14.44268-4.65776"/>
    <path class="cls-4" d="M342.18145,628.04959v50.52046q7.86405-2.23141,14.44267-4.665V623.39183q-6.58587,2.42636-14.44267,4.65776"/>
    <path class="cls-4" d="M74.992,633.29227V683.82q6.93249,1.44064,14.44268,2.72965v-50.5277q-7.50659-1.289-14.44268-2.72965"/>
    <path class="cls-4" d="M306.07477,636.02195v50.53492q7.50659-1.29984,14.44267-2.7369v-50.5277q-6.93248,1.44065-14.44267,2.72968"/>
    <path class="cls-4" d="M111.0987,639.24988v50.53491c4.70832.60659,9.5105,1.16985,14.44267,1.67534V640.92521c-4.93217-.5127-9.73435-1.076-14.44267-1.67533"/>
    <path class="cls-4" d="M269.96809,640.918v50.54213c4.93217-.51271,9.73436-1.076,14.44267-1.67534V639.24988c-4.70831.60659-9.5105,1.16984-14.44267,1.66812"/>
    <path class="cls-4" d="M147.20538,642.7811v50.54213q7.11663.49829,14.44267.86655V643.64043q-7.33326-.35742-14.44267-.85933"/>
    <path class="cls-4" d="M233.86141,643.64043v50.54935q7.33327-.35747,14.44268-.86655V642.7811q-7.11664.49829-14.44268.85933"/>
    <path class="cls-4" d="M197.75473,644.52145c-2.41914,0-4.82384-.02165-7.22133-.04333v50.54935c2.39749.02168,4.80219.04333,7.22133.04333s4.82385-.02165,7.22134-.04333V644.47812c-2.39749.02168-4.8022.04333-7.22134.04333"/>
    <path class="cls-5" d="M60.54935,702.82652v50.51324q6.58586,2.42635,14.44267,4.665V707.48429q-7.864-2.23142-14.44267-4.65777"/>
    <path class="cls-5" d="M363.84546,707.48429v50.52045q7.86405-2.2314,14.44267-4.665V702.82652q-6.58587,2.42637-14.44267,4.65777"/>
    <path class="cls-5" d="M96.656,712.727v50.5277q6.93249,1.44066,14.44267,2.72966v-50.5277q-7.50657-1.289-14.44267-2.72966"/>
    <path class="cls-5" d="M327.73878,715.45664v50.53492q7.50658-1.29983,14.44267-2.7369V712.727q-6.93248,1.44066-14.44267,2.72968"/>
    <path class="cls-5" d="M132.76271,718.68457v50.53492c4.70831.60659,9.5105,1.16985,14.44267,1.67534V720.35991c-4.93217-.51271-9.73436-1.076-14.44267-1.67534"/>
    <path class="cls-5" d="M291.6321,720.35269v50.54214c4.93216-.51271,9.73436-1.076,14.44267-1.67534V718.68457c-4.70831.60659-9.51051,1.16985-14.44267,1.66812"/>
    <path class="cls-5" d="M168.86939,722.21579v50.54214q7.11661.49828,14.44267.86655V723.07513q-7.33326-.35743-14.44267-.85934"/>
    <path class="cls-5" d="M255.52542,723.07513v50.54935q7.33324-.35746,14.44267-.86655V722.21579q-7.11665.49829-14.44267.85934"/>
    <path class="cls-5" d="M219.41874,723.95614c-2.41914,0-4.82385-.02165-7.22133-.04333v50.54935c2.39748.02168,4.80219.04333,7.22133.04333s4.82385-.02165,7.22134-.04333V723.91281c-2.39749.02168-4.8022.04333-7.22134.04333"/>
    <path class="cls-6" d="M379.81907,661.65047c-20.5086,18.03888-94.23124,33.42033-182.06434,33.42033-68.6749,0-128.70587-9.40941-161.44019-22.13339-3.01129,2.72966-4.65053,5.6182-4.65053,8.6295,0,21.9384,84.06357,42.38923,187.75473,42.38923,103.69839,0,187.75474-20.45083,187.75474-42.38923,0-7.56075-10.00154-14.31992-27.35441-19.91644"/>
    <path class="cls-3" d="M241.08275,615.6361c-95.41552,0-174.14973-18.16165-186.12271-38.15032C26.94847,583.83335,10,592.28953,10,602.1322c0,21.9312,84.06357,42.38925,187.75473,42.38925s187.75474-20.458,187.75474-42.38924a8.7151,8.7151,0,0,0-.54161-2.85243c-34.43856,9.691-86.1,16.35632-143.88511,16.35632"/>
    <path class="cls-6" d="M378.23758,496.83791c-22.46557,17.47563-94.7367,32.14216-180.48285,32.14216-55.37319,0-105.13543-6.12369-139.50177-15.1648-3.1846,2.81633-4.92494,5.77707-4.92494,8.88224,0,21.93841,84.06357,42.38924,187.75473,42.38924s187.75473-20.45083,187.75473-42.38923c0-10.48539-19.2304-19.40373-50.5999-25.85961"/>
    <g>
      <path class="cls-3" d="M493.73574,755.31231c-21.38086,4.88223-60.03941-72.51759-83.12269-173.60676s-21.85247-187.59755-.47161-192.47978c21.3879-4.88384,54.82972,73.7072,77.913,174.79637s27.0692,186.40633,5.6813,191.29017"/>
      <path class="cls-2" d="M410.61305,581.70555c-23.08328-101.08917-20.9443-187.80493.44361-192.68877l-49.25272,11.24665c-21.361,4.93694-23.54862,91.6342-.47177,192.6952S424.01156,771.17427,445.39823,766.35L494.651,755.10332c-21.38791,4.88384-60.95463-72.3086-84.03791-173.39777"/>
      <path class="cls-4" d="M395.84564,422.119,346.6,433.364q-.89937,6.96074-1.33275,15.11875l49.25272-11.24665q.42474-8.16343,1.32571-15.11714"/>
      <path class="cls-4" d="M458.82323,718.84117l-49.25272,11.24665q3.92606,7.17,7.76309,13.04175l49.24568-11.245q-3.8316-5.88047-7.756-13.04336"/>
      <path class="cls-4" d="M394.23154,459.52362l-49.25975,11.24826q.13878,7.07924.554,14.68791l49.25976-11.24825q-.41442-7.60516-.554-14.68792"/>
      <path class="cls-4" d="M443.013,685.41531l-49.26679,11.24986q2.9383,7.02885,5.88337,13.471l49.25976-11.24826q-2.9478-6.43779-5.87634-13.47258"/>
      <path class="cls-4" d="M396.46839,496.0489l-49.2668,11.24986c.45678,4.7252.97668,9.53228,1.58185,14.45321l49.26681-11.24986c-.60517-4.92094-1.118-9.72962-1.58186-14.45321"/>
      <path class="cls-4" d="M430.19486,651.30623l-49.2668,11.24986c1.59782,4.69426,3.216,9.25056,4.84848,13.7073l49.27384-11.25148c-1.64656-4.45352-3.26473-9.00981-4.85552-13.70568"/>
      <path class="cls-4" d="M401.05665,532.03724l-49.27384,11.25147q1.09851,7.049,2.37034,14.27316L403.434,546.3088q-1.284-7.22883-2.37738-14.27156"/>
      <path class="cls-4" d="M419.50986,616.71005,370.229,627.96313q1.981,7.06968,4.06,13.88734L423.56281,630.599q-2.07006-6.82713-4.053-13.889"/>
      <path class="cls-4" d="M410.61305,581.70555c-.53854-2.35844-1.05274-4.70762-1.56534-7.04977l-49.28088,11.25308c.5126,2.34215,1.0268,4.69133,1.56534,7.04977s1.095,4.698,1.64983,7.03048L412.26288,588.736c-.55484-2.33251-1.11129-4.67205-1.64983-7.03048"/>
    </g>
  </g>
</svg>
